<svg xmlns="http://www.w3.org/2000/svg"
     width="350"
     height="110"
     xml:space="preserve">
  <g>
    <g transform="scale(1.1648134135730066 1.164813413573036) rotate(0 48.271240234375 44.874053955078)">
      <g>
        <path
          d="M38.101 57.484c.098.037.198.07.31.07h.001a.847.847 0 01-.311-.07z"
          id="PATH_2_0"
          fill="#006cb4"/>
        <ellipse
          transform="rotate(72.998 31.787 14.007)"
          cx="31.786"
          cy="14.006"
          rx="14.28"
          ry="10.605"
          fill="#05549c"/>
        <ellipse
          transform="scale(-1) rotate(-79.851 -17.115 70.192)"
          cx="58.739"
          cy="14.321"
          rx="14.279"
          ry="10.605"
          fill="#05549c"/>
        <ellipse
          transform="scale(-1) rotate(69.947 41.401 -12.933)"
          cx="9.047"
          cy="28.961"
          rx="11.836"
          ry="8.605"
          fill="#05549c"/>
        <path
          d="M45.293 65.998a1.213 1.213 0 011.695.275 1.015 1.015 0 01-.443 1.527l-1.498.612a.915.915 0 00-.484 1.23 1.648 1.648 0 001.896.909l5.303-1.326a1.366 1.366 0 011.599.818 1.06 1.06 0 01-.892 1.451l-4.996.444a.631.631 0 00-.521.885c.175.392.575.632 1.003.601l7.297-.53a.999.999 0 011.059.833.899.899 0 01-.887 1.047h-7.93a.556.556 0 00-.535.709.626.626 0 00.563.455l5.807.387a.727.727 0 01.613 1.028c-.223.491-.74.781-1.275.716l-6.705-.821c-.181-.022-.903.842.191 1.169l4.095.586c.603.086 1.05.601 1.05 1.209a.566.566 0 01-.564.566c-2.29 0-11.221-.147-20.697-2.305 8.146 5.445 16.046 8.524 16.046 8.524 14.032-6.87 22.271-15.163 25.985-19.577 2.271-2.698 3.963-5.865 4.692-9.317.106-.505.184-.996.247-1.481-8.877 4.618-20.231 6.167-27.43 6.682l-4.284 2.694z"
          fill="#05549c"/>
        <ellipse
          transform="rotate(-69.452 81.235 29.275)"
          cx="81.235"
          cy="29.276"
          rx="11.836"
          ry="8.605"
          id="PATH_2_5"
          fill="#05549c"/>
        <path
          d="M43.042 67.318l-.006.003c-11.299 5.338-25.777-5.768-29.86-9.213-.768-4.032-.244-8.252 1.727-11.985 2.107-3.993 6.028-7.901 13.315-8.3 0 0 8.827-.473 16.603 7.354 0 0 11.769-13.449 25.429-4.623 0 0 1.576 1.119 3.224 3.249-1.77 2.058-12.648 13.725-24.938 4.969a1.21 1.21 0 00-1.688.28 1.015 1.015 0 00.443 1.527l1.498.612a.914.914 0 01.483 1.23 1.646 1.646 0 01-1.896.908l-5.301-1.325a1.366 1.366 0 00-1.6.817c-.265.661.183.88.892.943l4.995.953a.63.63 0 01.521.885 1.017 1.017 0 01-1.003.601l-7.298-.53a1 1 0 00-1.059.832.901.901 0 00.887 1.048h7.931c.37 0 .637.354.535.709a.627.627 0 01-.563.455l-5.806.387a.73.73 0 00-.614 1.029c.224.492.74.782 1.276.717l6.704-.821c.427-.058.872.897-.167 1.165l-4.118.59c-.236.032-.438.146-.618.277-.858.624-.179 1.497.133 1.497 1.02.001 3.36-.03 6.474-.253-.001 0-3.489 2.261-6.535 4.013z"
          id="PATH_2_6"
          fill="#51617a"/>
      </g>
    </g>
  </g>
  <g>
    <g transform="translate(120 60) scale(1 1)">
      <text
        id="text-0"
        dominant-baseline="auto"
        alignment-baseline="auto"
        font-family="Arlon SemiBold"
        font-size="62px"
        fill="#05549c"
        xml:space="preserve"
        dx="0 0 0 0 0 0 0">Devears</text>
    </g>
  </g>

  <g>
    <g transform="translate(124 88) scale(0.85219474649467 0.85219474649467)">
      <text
        dominant-baseline="auto"
        alignment-baseline="auto"
        font-family="Arlon SemiBold"
        font-size="34px"
        fill="#51617a"
        xml:space="preserve"
        dx="0 0 0 0 0 0 0 0 0 0 0 0 0 0 0">Developer Study</text>
    </g>
  </g>
</svg>